<svg xmlns="http://www.w3.org/2000/svg" viewBox="0 0 400 160" role="img" aria-labelledby="digitalMarketingCoverTitle">
<title id="digitalMarketingCoverTitle">A megaphone next to a rising bar chart and a target, representing digital marketing</title>
<rect width="400" height="160" fill="#EFF6FF"/>
<circle cx="360" cy="20" r="90" fill="#BFDBFE" opacity="0.35"/>
<circle cx="30" cy="150" r="60" fill="#BFDBFE" opacity="0.25"/>

<g transform="translate(100,80)">
  <path d="M-35,-14 L5,-34 V34 L-35,14 Z" fill="#2563EB"/>
  <path d="M-35,-14 H-46 V14 H-35 Z" fill="#2563EB"/>
  <path d="M5,-34 L34,-44 V44 L5,34 Z" fill="#FFFFFF" stroke="#2563EB" stroke-width="3"/>
  <path d="M-40,14 L-34,34 L-24,31 L-30,14 Z" fill="#111827"/>
</g>
<g transform="translate(215,105)">
  <rect x="0" y="-20" width="14" height="20" fill="#BFDBFE"/>
  <rect x="20" y="-36" width="14" height="36" fill="#2563EB"/>
  <rect x="40" y="-52" width="14" height="52" fill="#BFDBFE"/>
  <rect x="60" y="-30" width="14" height="30" fill="#2563EB"/>
</g>
<g transform="translate(305,40)">
  <circle r="18" fill="none" stroke="#C1442D" stroke-width="3"/>
  <circle r="10" fill="none" stroke="#C1442D" stroke-width="3"/>
  <circle r="3" fill="#C1442D"/>
</g>

</svg>