<svg xmlns="http://www.w3.org/2000/svg" viewBox="0 0 400 160" role="img" aria-labelledby="hseCoverTitle">
<title id="hseCoverTitle">A hard hat, a hazard warning triangle, and a safety checklist, representing HSE fundamentals</title>
<rect width="400" height="160" fill="#EFF6FF"/>
<circle cx="360" cy="20" r="90" fill="#BFDBFE" opacity="0.35"/>
<circle cx="30" cy="150" r="60" fill="#BFDBFE" opacity="0.25"/>

<g transform="translate(105,90)">
  <path d="M-38,6 a38,30 0 0 1 76,0 Z" fill="#2563EB"/>
  <rect x="-44" y="4" width="88" height="10" rx="5" fill="#2563EB"/>
  <rect x="-6" y="-38" width="12" height="18" rx="3" fill="#2563EB"/>
</g>
<g transform="translate(215,95)">
  <path d="M0,-38 L34,26 H-34 Z" fill="#FFFFFF" stroke="#C1442D" stroke-width="4" stroke-linejoin="round"/>
  <rect x="-3.5" y="-16" width="7" height="24" fill="#C1442D"/>
  <circle cx="0" cy="16" r="4" fill="#C1442D"/>
</g>
<g transform="translate(300,55)">
  <rect x="-24" y="-30" width="48" height="60" rx="6" fill="#FFFFFF" stroke="#2563EB" stroke-width="3"/>
  <g stroke="#2563EB" stroke-width="3" stroke-linecap="round">
    <line x1="-14" y1="-14" x2="14" y2="-14"/>
    <line x1="-14" y1="0" x2="14" y2="0"/>
    <line x1="-14" y1="14" x2="4" y2="14"/>
  </g>
  <path d="M8,10 l4,4 8,-9" fill="none" stroke="#2563EB" stroke-width="3" stroke-linecap="round" stroke-linejoin="round"/>
</g>

</svg>